<mxfile host="app.diagrams.net" agent="Mozilla/5.0 (Windows NT 10.0; Win64; x64) AppleWebKit/537.36 (KHTML, like Gecko) Chrome/127.0.0.0 Safari/537.36" version="24.7.6">
  <diagram name="Page-1" id="xSsWnWOYuInUAKU0IP5L">
    <mxGraphModel dx="2086" dy="662" grid="1" gridSize="10" guides="1" tooltips="1" connect="1" arrows="1" fold="1" page="1" pageScale="1" pageWidth="827" pageHeight="1169" math="0" shadow="0">
      <root>
        <mxCell id="0" />
        <mxCell id="1" parent="0" />
        <mxCell id="7M7bJ6c1Jg54Ehi1CCmJ-1" value="Administrateur" style="shape=umlActor;verticalLabelPosition=bottom;verticalAlign=top;html=1;" parent="1" vertex="1">
          <mxGeometry x="-110" y="490" width="30" height="60" as="geometry" />
        </mxCell>
        <mxCell id="7M7bJ6c1Jg54Ehi1CCmJ-2" value="&lt;div style=&quot;font-size: 14px;&quot;&gt;&lt;span style=&quot;background-color: initial;&quot;&gt;CAS D&#39;UTILISATION&lt;/span&gt;&lt;br&gt;&lt;/div&gt;" style="shape=module;align=left;spacingLeft=20;align=center;verticalAlign=middle;whiteSpace=wrap;html=1;fillColor=#bac8d3;strokeColor=#23445d;fontStyle=1;fontColor=#ffffff;fontSize=14;" parent="1" vertex="1">
          <mxGeometry x="10" y="10" width="170" height="50" as="geometry" />
        </mxCell>
        <mxCell id="LzV69qebvS1yH9auH7Qv-1" value="" style="swimlane;startSize=0;" vertex="1" parent="1">
          <mxGeometry x="130" y="160" width="520" height="770" as="geometry" />
        </mxCell>
        <mxCell id="LzV69qebvS1yH9auH7Qv-2" value="&lt;font style=&quot;font-size: 10px;&quot;&gt;Gestion d&#39;une école&lt;/font&gt;" style="html=1;whiteSpace=wrap;" vertex="1" parent="LzV69qebvS1yH9auH7Qv-1">
          <mxGeometry x="10" y="10" width="110" height="20" as="geometry" />
        </mxCell>
        <mxCell id="LzV69qebvS1yH9auH7Qv-5" value="Gérer Élèves" style="ellipse;whiteSpace=wrap;html=1;" vertex="1" parent="LzV69qebvS1yH9auH7Qv-1">
          <mxGeometry x="185" y="395" width="90" height="40" as="geometry" />
        </mxCell>
        <mxCell id="LzV69qebvS1yH9auH7Qv-6" value="Gérer Enseignants" style="ellipse;whiteSpace=wrap;html=1;" vertex="1" parent="LzV69qebvS1yH9auH7Qv-1">
          <mxGeometry x="95" y="80" width="90" height="40" as="geometry" />
        </mxCell>
        <mxCell id="LzV69qebvS1yH9auH7Qv-7" value="Gérer Cours" style="ellipse;whiteSpace=wrap;html=1;" vertex="1" parent="LzV69qebvS1yH9auH7Qv-1">
          <mxGeometry x="350" y="170" width="90" height="40" as="geometry" />
        </mxCell>
        <mxCell id="LzV69qebvS1yH9auH7Qv-15" value="Extends" style="endArrow=open;endSize=12;dashed=1;html=1;rounded=0;" edge="1" parent="LzV69qebvS1yH9auH7Qv-1" source="LzV69qebvS1yH9auH7Qv-7" target="LzV69qebvS1yH9auH7Qv-6">
          <mxGeometry width="160" relative="1" as="geometry">
            <mxPoint x="100" y="240" as="sourcePoint" />
            <mxPoint x="240" y="378" as="targetPoint" />
          </mxGeometry>
        </mxCell>
        <mxCell id="LzV69qebvS1yH9auH7Qv-16" value="Extends" style="endArrow=open;endSize=12;dashed=1;html=1;rounded=0;" edge="1" parent="LzV69qebvS1yH9auH7Qv-1" source="LzV69qebvS1yH9auH7Qv-7" target="LzV69qebvS1yH9auH7Qv-5">
          <mxGeometry x="-0.0007" width="160" relative="1" as="geometry">
            <mxPoint x="473.68999999999994" y="139.96000000000004" as="sourcePoint" />
            <mxPoint x="180.0000000000001" y="89.99999999999999" as="targetPoint" />
            <Array as="points" />
            <mxPoint as="offset" />
          </mxGeometry>
        </mxCell>
        <mxCell id="LzV69qebvS1yH9auH7Qv-24" value="Consulter Planning" style="ellipse;whiteSpace=wrap;html=1;" vertex="1" parent="LzV69qebvS1yH9auH7Qv-1">
          <mxGeometry x="305" y="640" width="120" height="50" as="geometry" />
        </mxCell>
        <mxCell id="LzV69qebvS1yH9auH7Qv-25" value="Extends" style="endArrow=open;endSize=12;dashed=1;html=1;rounded=0;entryX=0.68;entryY=0.028;entryDx=0;entryDy=0;entryPerimeter=0;" edge="1" parent="LzV69qebvS1yH9auH7Qv-1" source="LzV69qebvS1yH9auH7Qv-7" target="LzV69qebvS1yH9auH7Qv-24">
          <mxGeometry width="160" relative="1" as="geometry">
            <mxPoint x="470" y="130" as="sourcePoint" />
            <mxPoint x="255" y="179" as="targetPoint" />
          </mxGeometry>
        </mxCell>
        <mxCell id="LzV69qebvS1yH9auH7Qv-28" value="Gérer Adresses" style="ellipse;whiteSpace=wrap;html=1;" vertex="1" parent="LzV69qebvS1yH9auH7Qv-1">
          <mxGeometry x="65" y="280" width="120" height="40" as="geometry" />
        </mxCell>
        <mxCell id="LzV69qebvS1yH9auH7Qv-31" value="Includes" style="endArrow=open;endSize=12;dashed=1;html=1;rounded=0;" edge="1" parent="LzV69qebvS1yH9auH7Qv-1" source="LzV69qebvS1yH9auH7Qv-5" target="LzV69qebvS1yH9auH7Qv-28">
          <mxGeometry width="160" relative="1" as="geometry">
            <mxPoint x="240" y="490" as="sourcePoint" />
            <mxPoint x="438" y="341" as="targetPoint" />
          </mxGeometry>
        </mxCell>
        <mxCell id="LzV69qebvS1yH9auH7Qv-32" value="Includes" style="endArrow=open;endSize=12;dashed=1;html=1;rounded=0;" edge="1" parent="LzV69qebvS1yH9auH7Qv-1" source="LzV69qebvS1yH9auH7Qv-6" target="LzV69qebvS1yH9auH7Qv-28">
          <mxGeometry width="160" relative="1" as="geometry">
            <mxPoint x="217.48093123394005" y="531.5778864521842" as="sourcePoint" />
            <mxPoint x="120" y="430" as="targetPoint" />
          </mxGeometry>
        </mxCell>
        <mxCell id="LzV69qebvS1yH9auH7Qv-33" value="Consulter Adresses" style="ellipse;whiteSpace=wrap;html=1;" vertex="1" parent="LzV69qebvS1yH9auH7Qv-1">
          <mxGeometry x="40" y="510" width="120" height="40" as="geometry" />
        </mxCell>
        <mxCell id="LzV69qebvS1yH9auH7Qv-41" value="Extends" style="endArrow=open;endSize=12;dashed=1;html=1;rounded=0;" edge="1" parent="LzV69qebvS1yH9auH7Qv-1" source="LzV69qebvS1yH9auH7Qv-28" target="LzV69qebvS1yH9auH7Qv-33">
          <mxGeometry width="160" relative="1" as="geometry">
            <mxPoint x="120" y="490" as="sourcePoint" />
            <mxPoint x="166.5" y="641" as="targetPoint" />
          </mxGeometry>
        </mxCell>
        <mxCell id="LzV69qebvS1yH9auH7Qv-43" value="Consulter la répartition géographique des adresses" style="shape=note;whiteSpace=wrap;html=1;backgroundOutline=1;darkOpacity=0.05;fillColor=#ffe6cc;strokeColor=#d79b00;fontSize=10;align=left;verticalAlign=middle;" vertex="1" parent="LzV69qebvS1yH9auH7Qv-1">
          <mxGeometry x="185" y="490" width="120" height="105" as="geometry" />
        </mxCell>
        <mxCell id="LzV69qebvS1yH9auH7Qv-44" value="" style="endArrow=none;dashed=1;html=1;dashPattern=1 3;strokeWidth=2;rounded=0;entryX=0.026;entryY=0.158;entryDx=0;entryDy=0;entryPerimeter=0;" edge="1" parent="LzV69qebvS1yH9auH7Qv-1" source="LzV69qebvS1yH9auH7Qv-33" target="LzV69qebvS1yH9auH7Qv-43">
          <mxGeometry width="50" height="50" relative="1" as="geometry">
            <mxPoint x="130" y="330" as="sourcePoint" />
            <mxPoint x="180" y="280" as="targetPoint" />
          </mxGeometry>
        </mxCell>
        <mxCell id="LzV69qebvS1yH9auH7Qv-10" value="" style="endArrow=none;html=1;rounded=0;entryX=0;entryY=0.5;entryDx=0;entryDy=0;" edge="1" parent="1" source="7M7bJ6c1Jg54Ehi1CCmJ-1" target="LzV69qebvS1yH9auH7Qv-5">
          <mxGeometry width="50" height="50" relative="1" as="geometry">
            <mxPoint x="90" y="200" as="sourcePoint" />
            <mxPoint x="140" y="250" as="targetPoint" />
          </mxGeometry>
        </mxCell>
        <mxCell id="LzV69qebvS1yH9auH7Qv-11" value="" style="endArrow=none;html=1;rounded=0;entryX=0;entryY=0.5;entryDx=0;entryDy=0;" edge="1" parent="1" source="7M7bJ6c1Jg54Ehi1CCmJ-1" target="LzV69qebvS1yH9auH7Qv-7">
          <mxGeometry width="50" height="50" relative="1" as="geometry">
            <mxPoint x="90" y="220" as="sourcePoint" />
            <mxPoint x="130" y="330" as="targetPoint" />
          </mxGeometry>
        </mxCell>
        <mxCell id="LzV69qebvS1yH9auH7Qv-14" value="" style="endArrow=none;html=1;rounded=0;exitX=0;exitY=0.5;exitDx=0;exitDy=0;" edge="1" parent="1" source="LzV69qebvS1yH9auH7Qv-6" target="7M7bJ6c1Jg54Ehi1CCmJ-1">
          <mxGeometry width="50" height="50" relative="1" as="geometry">
            <mxPoint x="280" y="340" as="sourcePoint" />
            <mxPoint x="140" y="290" as="targetPoint" />
          </mxGeometry>
        </mxCell>
        <mxCell id="LzV69qebvS1yH9auH7Qv-21" value="Elève" style="shape=umlActor;verticalLabelPosition=bottom;verticalAlign=top;html=1;" vertex="1" parent="1">
          <mxGeometry x="750" y="810" width="30" height="60" as="geometry" />
        </mxCell>
        <mxCell id="LzV69qebvS1yH9auH7Qv-22" value="Enseignant" style="shape=umlActor;verticalLabelPosition=bottom;verticalAlign=top;html=1;" vertex="1" parent="1">
          <mxGeometry x="770" y="670" width="30" height="60" as="geometry" />
        </mxCell>
        <mxCell id="LzV69qebvS1yH9auH7Qv-26" value="" style="endArrow=none;html=1;rounded=0;" edge="1" parent="1" source="LzV69qebvS1yH9auH7Qv-22" target="LzV69qebvS1yH9auH7Qv-24">
          <mxGeometry width="50" height="50" relative="1" as="geometry">
            <mxPoint x="230" y="380" as="sourcePoint" />
            <mxPoint x="280" y="330" as="targetPoint" />
          </mxGeometry>
        </mxCell>
        <mxCell id="LzV69qebvS1yH9auH7Qv-27" value="" style="endArrow=none;html=1;rounded=0;" edge="1" parent="1" source="LzV69qebvS1yH9auH7Qv-21" target="LzV69qebvS1yH9auH7Qv-24">
          <mxGeometry width="50" height="50" relative="1" as="geometry">
            <mxPoint x="80" y="364" as="sourcePoint" />
            <mxPoint x="315" y="431" as="targetPoint" />
          </mxGeometry>
        </mxCell>
        <mxCell id="LzV69qebvS1yH9auH7Qv-34" value="" style="endArrow=none;html=1;rounded=0;" edge="1" parent="1" source="7M7bJ6c1Jg54Ehi1CCmJ-1" target="LzV69qebvS1yH9auH7Qv-33">
          <mxGeometry width="50" height="50" relative="1" as="geometry">
            <mxPoint x="170" y="380" as="sourcePoint" />
            <mxPoint x="220" y="330" as="targetPoint" />
          </mxGeometry>
        </mxCell>
        <mxCell id="LzV69qebvS1yH9auH7Qv-61" style="edgeStyle=none;rounded=0;orthogonalLoop=1;jettySize=auto;html=1;" edge="1" parent="1">
          <mxGeometry relative="1" as="geometry">
            <mxPoint x="-90" y="750" as="sourcePoint" />
            <mxPoint x="-95" y="580" as="targetPoint" />
          </mxGeometry>
        </mxCell>
        <mxCell id="LzV69qebvS1yH9auH7Qv-47" value="Directeur" style="shape=umlActor;verticalLabelPosition=bottom;verticalAlign=top;html=1;" vertex="1" parent="1">
          <mxGeometry x="-110" y="770" width="30" height="60" as="geometry" />
        </mxCell>
        <mxCell id="LzV69qebvS1yH9auH7Qv-64" value="" style="edgeStyle=none;orthogonalLoop=1;jettySize=auto;html=1;rounded=0;" edge="1" parent="1">
          <mxGeometry width="80" relative="1" as="geometry">
            <mxPoint x="330" y="610" as="sourcePoint" />
            <mxPoint x="410" y="610" as="targetPoint" />
            <Array as="points" />
          </mxGeometry>
        </mxCell>
        <mxCell id="LzV69qebvS1yH9auH7Qv-66" value="" style="endArrow=none;html=1;rounded=0;" edge="1" parent="1" source="LzV69qebvS1yH9auH7Qv-47" target="LzV69qebvS1yH9auH7Qv-33">
          <mxGeometry width="50" height="50" relative="1" as="geometry">
            <mxPoint x="-70" y="800" as="sourcePoint" />
            <mxPoint x="231" y="974" as="targetPoint" />
          </mxGeometry>
        </mxCell>
        <mxCell id="LzV69qebvS1yH9auH7Qv-67" value="" style="endArrow=none;html=1;rounded=0;" edge="1" parent="1" source="LzV69qebvS1yH9auH7Qv-47" target="LzV69qebvS1yH9auH7Qv-24">
          <mxGeometry width="50" height="50" relative="1" as="geometry">
            <mxPoint x="30" y="840" as="sourcePoint" />
            <mxPoint x="203" y="742" as="targetPoint" />
          </mxGeometry>
        </mxCell>
      </root>
    </mxGraphModel>
  </diagram>
</mxfile>
